Coordinates
version=1
nRows=37
nColumns=34
inDegrees=no

Units are S.I. units (second, meters, Newtons, ...)
If the header above contains a line with 'inDegrees', this indicates whether rotational values are in degrees (yes) or radians (no).

endheader
time	pelvis_tilt	pelvis_list	pelvis_rotation	pelvis_tx	pelvis_ty	pelvis_tz	hip_flexion_r	hip_adduction_r	hip_rotation_r	knee_angle_r	ankle_angle_r	subtalar_angle_r	mtp_angle_r	hip_flexion_l	hip_adduction_l	hip_rotation_l	knee_angle_l	ankle_angle_l	subtalar_angle_l	mtp_angle_l	lumbar_extension	lumbar_bending	lumbar_rotation	arm_flex_r	arm_add_r	arm_rot_r	elbow_flex_r	pro_sup_r	arm_flex_l	arm_add_l	arm_rot_l	elbow_flex_l	pro_sup_l
0	0.182577	0.0282858	-0.0595489	-0.187467	1.01192	-0.293919	0.31763	-0.0321358	-0.0320929	0.227662	0.104405	0.0452244	-0.129736	-0.523599	0.0445848	-0.23763	0.201126	0.310222	0.475354	-0.129736	-0.440063	0.0163217	-0.0450009	-0.0334605	-0.209503	-0.149649	0.599501	1.75115	0.182595	-0.285814	0.112617	1.27525	1.63473
0.01	0.18564	0.014715	-0.0560504	-0.172292	1.01125	-0.292171	0.312131	-0.0176376	-0.0458043	0.245065	0.0707202	0.0307786	-0.129736	-0.523599	0.0250781	-0.242415	0.232088	0.297622	0.473867	-0.129736	-0.442559	0.0337564	-0.0429294	-0.0315857	-0.210885	-0.147541	0.596744	1.75298	0.168949	-0.278736	0.10849	1.26637	1.63877
0.02	0.187725	-0.000951917	-0.0525311	-0.156678	1.01051	-0.290274	0.308076	-0.00066001	-0.0586394	0.263577	0.0391605	0.0144244	-0.129736	-0.523599	0.00173071	-0.254074	0.268531	0.28404	0.481355	-0.129736	-0.443348	0.0532908	-0.0399992	-0.0302705	-0.212293	-0.145989	0.594625	1.75456	0.154399	-0.271207	0.104015	1.25633	1.64151
0.03	0.188254	-0.0163396	-0.0491409	-0.141048	1.00997	-0.288326	0.306687	0.0160372	-0.0705227	0.285079	0.0131904	-0.0012156	-0.129736	-0.523599	-0.0221479	-0.265285	0.30798	0.264653	0.485333	-0.129736	-0.442227	0.0725653	-0.0369365	-0.0293579	-0.21343	-0.145117	0.59317	1.75453	0.139163	-0.263421	0.0995324	1.24465	1.64112
0.04	0.190302	-0.0303816	-0.0469031	-0.125058	1.00971	-0.286125	0.304944	0.0315505	-0.0791782	0.309307	-0.00511305	-0.0165926	-0.129736	-0.523599	-0.0455752	-0.277174	0.351424	0.23645	0.486841	-0.129736	-0.442517	0.0895812	-0.0331189	-0.0284493	-0.213522	-0.146933	0.593038	1.75357	0.124266	-0.256159	0.0957815	1.23166	1.63698
0.05	0.191167	-0.0444655	-0.0454019	-0.109551	1.01006	-0.283808	0.304234	0.0476254	-0.0852698	0.335864	-0.016109	-0.0324393	-0.129736	-0.517748	-0.0704297	-0.289653	0.400409	0.201608	0.485575	-0.129736	-0.442045	0.106336	-0.0276828	-0.0284105	-0.212971	-0.153984	0.592834	1.77305	0.109269	-0.248556	0.092142	1.2137	1.64642
0.06	0.186227	-0.0562257	-0.0431464	-0.0939259	1.01029	-0.281703	0.311131	0.0605174	-0.0927272	0.367105	-0.0144217	-0.0397251	-0.129736	-0.495139	-0.0942993	-0.294884	0.45554	0.162112	0.470232	-0.129736	-0.43428	0.121697	-0.0248726	-0.0285903	-0.212853	-0.156286	0.593627	1.77579	0.0923199	-0.240668	0.0876254	1.19375	1.64465
0.07	0.180123	-0.0677708	-0.040449	-0.0783868	1.01071	-0.279598	0.317828	0.0731955	-0.0989724	0.397081	-0.00652	-0.0457935	-0.129736	-0.466808	-0.119984	-0.297718	0.516608	0.117731	0.448066	-0.129736	-0.42522	0.136936	-0.0225143	-0.0289874	-0.212633	-0.158795	0.595794	1.7775	0.0754691	-0.233125	0.0835227	1.17163	1.6417
0.08	0.173027	-0.0794677	-0.0365841	-0.0630401	1.0112	-0.277542	0.323172	0.0860339	-0.104687	0.423282	0.00511969	-0.0515379	-0.129736	-0.432993	-0.148039	-0.296981	0.583009	0.0697128	0.417916	-0.129736	-0.415177	0.152553	-0.0210384	-0.0293979	-0.212398	-0.161038	0.599319	1.77778	0.0592379	-0.226237	0.0802036	1.14767	1.63793
0.09	0.165045	-0.0914136	-0.0310364	-0.0479916	1.0117	-0.275575	0.326648	0.0991591	-0.110393	0.444176	0.0185079	-0.0577354	-0.129736	-0.39397	-0.17833	-0.291453	0.653559	0.0188475	0.37871	-0.129736	-0.404338	0.168687	-0.0207729	-0.0296063	-0.212178	-0.162883	0.603778	1.77904	0.0441461	-0.220281	0.0780151	1.12191	1.63485
0.1	0.156354	-0.103476	-0.0236506	-0.0333197	1.01216	-0.273724	0.328219	0.112511	-0.116258	0.45935	0.0322311	-0.0650517	-0.129736	-0.350238	-0.210047	-0.280341	0.72651	-0.0346019	0.330123	-0.129736	-0.392897	0.185124	-0.0217955	-0.0294433	-0.212047	-0.163767	0.609129	1.77938	0.030626	-0.215457	0.0773237	1.09454	1.63221
0.11	0.147529	-0.115185	-0.0146628	-0.0190691	1.0126	-0.272012	0.327788	0.125656	-0.122152	0.46938	0.0458914	-0.0731507	-0.129736	-0.302932	-0.241615	-0.263468	0.7996	-0.0905992	0.272856	-0.129736	-0.381476	0.201192	-0.0237849	-0.0288586	-0.212123	-0.162645	0.616382	1.76818	0.0191138	-0.211932	0.0788617	1.06664	1.62364
0.12	0.138856	-0.126396	-0.00447802	-0.00522891	1.01306	-0.270438	0.325612	0.138535	-0.127805	0.475126	0.0586767	-0.0825024	-0.129736	-0.25289	-0.27196	-0.241507	0.871059	-0.147892	0.209219	-0.129736	-0.370333	0.216575	-0.0264972	-0.0276383	-0.212437	-0.161019	0.622794	1.76744	0.00956188	-0.209385	0.0813477	1.03572	1.62639
0.13	0.131216	-0.136643	0.00628392	0.00823459	1.01366	-0.26901	0.321185	0.150654	-0.132957	0.477575	0.07075	-0.0920221	-0.129736	-0.201821	-0.299567	-0.21547	0.939114	-0.204043	0.14234	-0.129736	-0.360477	0.230596	-0.0292062	-0.0258002	-0.213182	-0.157576	0.62984	1.76197	0.00207551	-0.207767	0.0852962	1.00372	1.629
0.14	0.125185	-0.145519	0.017125	0.0213631	1.01452	-0.267733	0.314145	0.161517	-0.137599	0.477506	0.0822216	-0.100636	-0.129736	-0.151364	-0.323384	-0.186887	1.00231	-0.254561	0.0761794	-0.129736	-0.35262	0.24274	-0.031424	-0.023241	-0.214386	-0.152626	0.637038	1.7537	-0.00347862	-0.206837	0.0901342	0.970724	1.63306
0.15	0.120599	-0.152611	0.0281156	0.0341318	1.01567	-0.26662	0.304952	0.170442	-0.142341	0.475559	0.0931431	-0.107419	-0.129736	-0.102707	-0.343	-0.157868	1.05903	-0.293374	0.0144936	-0.129736	-0.346686	0.252639	-0.0333293	-0.0197444	-0.215872	-0.14656	0.643846	1.74413	-0.00727752	-0.206488	0.0952213	0.937077	1.63882
0.16	0.121002	-0.155117	0.0363156	0.0468897	1.01765	-0.265793	0.288839	0.174623	-0.145652	0.472189	0.105669	-0.107978	-0.129736	-0.0582762	-0.355823	-0.129536	1.11366	-0.32065	-0.0364262	-0.129736	-0.346837	0.257053	-0.032627	-0.015314	-0.218307	-0.138105	0.65161	1.7201	-0.00981861	-0.205716	0.0987638	0.901584	1.65619
0.17	0.121082	-0.157257	0.0451933	0.0592787	1.01977	-0.264854	0.272407	0.178593	-0.1497	0.466485	0.115985	-0.10834	-0.129736	-0.0156015	-0.364873	-0.101147	1.15978	-0.329332	-0.0831071	-0.129736	-0.347009	0.260596	-0.0319669	-0.00997716	-0.220125	-0.131047	0.656734	1.71281	-0.0115268	-0.205849	0.101986	0.868558	1.66314
0.18	0.121507	-0.161676	0.0524844	0.0716231	1.02209	-0.263316	0.253902	0.186695	-0.15148	0.456662	0.122008	-0.111356	-0.129736	0.0255878	-0.376691	-0.0763087	1.20107	-0.321595	-0.11861	-0.129736	-0.347883	0.264971	-0.0285262	-0.00442889	-0.221434	-0.124169	0.661064	1.70825	-0.0135984	-0.206601	0.103248	0.837642	1.66869
0.19	0.123471	-0.155568	0.0585047	0.0837225	1.0249	-0.263027	0.233997	0.18045	-0.15724	0.450328	0.13518	-0.10006	-0.129736	0.0622039	-0.370648	-0.0529182	1.23435	-0.303981	-0.150465	-0.129736	-0.351039	0.259631	-0.0268666	0.00226925	-0.22405	-0.117371	0.664653	1.70966	-0.0150343	-0.205683	0.101005	0.806851	1.6806
0.2	0.0997302	-0.162886	0.0727022	0.0938728	1.02436	-0.262143	0.249018	0.186395	-0.171261	0.44701	0.139674	-0.102987	-0.129736	0.122283	-0.391192	-0.0498687	1.25463	-0.255287	-0.178908	-0.129736	-0.325683	0.268274	-0.0331444	0.00898966	-0.225628	-0.111035	0.667842	1.71439	-0.0178266	-0.205383	0.092406	0.77593	1.7212
0.21	0.126363	-0.150924	0.0689917	0.108074	1.0306	-0.261082	0.190167	0.17998	-0.164275	0.425544	0.149852	-0.0864356	-0.129736	0.130595	-0.361265	-0.0106994	1.28064	-0.248154	-0.191991	-0.129736	-0.355636	0.25359	-0.0196767	0.01497	-0.227798	-0.105	0.671764	1.71598	-0.0220104	-0.204689	0.083365	0.751659	1.73514
0.22	0.136287	-0.141307	0.0731442	0.12076	1.03471	-0.260713	0.155035	0.171683	-0.168681	0.409097	0.159334	-0.0709527	-0.129736	0.153882	-0.354902	-0.00527991	1.2971	-0.22623	-0.192682	-0.129736	-0.366753	0.243341	-0.0162566	0.0215423	-0.22985	-0.0992588	0.675796	1.71741	-0.0268363	-0.204236	0.0716224	0.731475	1.74866
0.23	0.129799	-0.14206	0.065539	0.132205	1.03693	-0.257814	0.142095	0.1785	-0.156206	0.395907	0.158027	-0.0745293	-0.129736	0.193045	-0.358238	-0.00344929	1.31069	-0.20374	-0.194058	-0.129736	-0.36403	0.237616	-0.000488116	0.0284214	-0.23111	-0.0942931	0.679999	1.71843	-0.0326958	-0.205004	0.0584121	0.716432	1.76012
0.24	0.141185	-0.129657	0.0726003	0.145081	1.04102	-0.258286	0.103594	0.165817	-0.165314	0.376783	0.16866	-0.0545465	-0.129736	0.208997	-0.338315	0.00426811	1.31085	-0.185664	-0.195084	-0.129736	-0.375246	0.225885	-0.00146186	0.0346207	-0.233662	-0.0893662	0.685023	1.7185	-0.0405742	-0.205096	0.0443531	0.706006	1.76761
0.25	0.132956	-0.131299	0.0607869	0.156316	1.0429	-0.255105	0.0926363	0.173622	-0.147525	0.363545	0.165437	-0.0607829	-0.129736	0.246505	-0.342167	-0.00186218	1.31421	-0.168682	-0.189106	-0.129736	-0.371414	0.219426	0.0177601	0.0418942	-0.235408	-0.0858807	0.688913	1.7266	-0.0487019	-0.206357	0.0277792	0.69681	1.79761
0.26	0.123183	-0.132278	0.0763652	0.16811	1.04353	-0.256698	0.0835359	0.172412	-0.167064	0.349656	0.175083	-0.0460785	-0.129736	0.277646	-0.343902	-0.0162749	1.29537	-0.125444	-0.182114	-0.129736	-0.357658	0.224753	0.00877614	0.0465858	-0.241298	-0.0809815	0.696043	1.72797	-0.0607998	-0.204946	0.013183	0.694324	1.80594
0.27	0.134836	-0.125401	0.052923	0.18079	1.04787	-0.252462	0.0434391	0.173626	-0.134978	0.32875	0.169756	-0.0518849	-0.129736	0.293048	-0.325218	-0.00603725	1.29638	-0.132339	-0.173951	-0.129736	-0.376233	0.205426	0.0385093	0.0541492	-0.241675	-0.0782983	0.700065	1.7274	-0.0703494	-0.209789	0.00351395	0.694739	1.80945
0.28	0.146208	-0.114236	0.0554885	0.193764	1.05128	-0.252627	0.00424735	0.16284	-0.139386	0.307507	0.176095	-0.0376135	-0.129736	0.301046	-0.306184	-0.0118985	1.27722	-0.113918	-0.157814	-0.129736	-0.387609	0.193084	0.0405419	0.0602282	-0.244762	-0.0749185	0.705614	1.72631	-0.0820407	-0.213035	-0.00491276	0.697583	1.80925
0.29	0.141859	-0.115198	0.0428385	0.205297	1.05285	-0.250069	-0.0120746	0.167751	-0.121273	0.293177	0.173217	-0.0437527	-0.129736	0.326584	-0.308238	-0.0274555	1.25999	-0.093653	-0.134457	-0.129736	-0.38693	0.18628	0.0595108	0.0673648	-0.248246	-0.0717555	0.710687	1.72797	-0.0926306	-0.216688	-0.0112135	0.70117	1.80778
0.3	0.152745	-0.106608	0.0426939	0.218528	1.05559	-0.250244	-0.0509371	0.159298	-0.123154	0.271485	0.177809	-0.032564	-0.129736	0.329937	-0.292876	-0.0396681	1.23128	-0.0697777	-0.108164	-0.129736	-0.397302	0.176066	0.0639477	0.0724606	-0.252971	-0.0677124	0.71709	1.72666	-0.105624	-0.219936	-0.0168264	0.706222	1.80499
0.31	0.149867	-0.104874	0.0329687	0.229671	1.05701	-0.24806	-0.0682582	0.16035	-0.107925	0.257348	0.174593	-0.0397033	-0.129736	0.351472	-0.289656	-0.0543454	1.20383	-0.0510448	-0.0779239	-0.129736	-0.398501	0.167273	0.0792451	0.0808509	-0.256239	-0.0633802	0.722923	1.71563	-0.114383	-0.225239	-0.0178669	0.712554	1.7838
0.32	0.158935	-0.0957651	0.0329914	0.242236	1.05922	-0.248041	-0.103477	0.151419	-0.108969	0.236852	0.176705	-0.0333959	-0.129736	0.354552	-0.272675	-0.0664549	1.16608	-0.0304718	-0.0459586	-0.129736	-0.408245	0.156023	0.0828986	0.0873712	-0.260476	-0.0591309	0.728665	1.71523	-0.125196	-0.229598	-0.0215658	0.717659	1.77791
0.33	0.158498	-0.0948585	0.0241227	0.253834	1.0602	-0.246516	-0.124529	0.151904	-0.0957704	0.221504	0.174473	-0.0387156	-0.129736	0.367539	-0.269326	-0.0832185	1.12752	-0.0113971	-0.0108908	-0.129736	-0.410696	0.149285	0.0969591	0.0947195	-0.265539	-0.0541827	0.734703	1.71313	-0.13458	-0.233143	-0.0248463	0.722632	1.7666
0.34	0.167111	-0.0877126	0.021545	0.266497	1.06174	-0.246494	-0.159017	0.144234	-0.0944746	0.201522	0.17615	-0.0337519	-0.129736	0.365825	-0.253243	-0.094972	1.08016	0.00685251	0.0217683	-0.129736	-0.419868	0.139591	0.102753	0.100685	-0.271132	-0.0486454	0.741645	1.7104	-0.145321	-0.236034	-0.0290613	0.728494	1.75195
0.35	0.168839	-0.0858077	0.01562	0.278241	1.06237	-0.245541	-0.182898	0.142774	-0.0855195	0.185344	0.175121	-0.0371147	-0.129736	0.371562	-0.246322	-0.109354	1.03049	0.0218915	0.0552652	-0.129736	-0.423886	0.133205	0.1131	0.10791	-0.276503	-0.0430494	0.748366	1.70716	-0.154041	-0.23865	-0.0335969	0.733725	1.73476
0.36	0.17334	-0.0798185	0.0135863	0.290228	1.06299	-0.245542	-0.210269	0.136112	-0.0847441	0.168645	0.177596	-0.0336752	-0.129736	0.370609	-0.23152	-0.121082	0.973096	0.0347596	0.084687	-0.129736	-0.429891	0.124865	0.117903	0.114961	-0.282112	-0.0372495	0.755464	1.70391	-0.162501	-0.240437	-0.0392903	0.738728	1.71637
